<svg width="20" height="20" viewBox="0 0 20 20" fill="none" xmlns="http://www.w3.org/2000/svg">
<path fill-rule="evenodd" clip-rule="evenodd" d="M16.25 3C17.7688 3 19 4.23122 19 5.75V14C19 16.2091 17.2091 18 15 18C13.1362 18 11.57 16.7252 11.126 15H8.87402C8.42998 16.7252 6.86384 18 5 18C2.79086 18 1 16.2091 1 14V5.75C1 4.23122 2.23122 3 3.75 3C5.26878 3 6.5 4.23122 6.5 5.75V7H4.5V5.75C4.5 5.33579 4.16421 5 3.75 5C3.33579 5 3 5.33579 3 5.75V10.5361C3.58845 10.1956 4.27125 10 5 10C6.86384 10 8.42998 11.2748 8.87402 13H11.126C11.57 11.2748 13.1362 10 15 10C15.7288 10 16.4116 10.1956 17 10.5361V5.75C17 5.33579 16.6642 5 16.25 5C15.8358 5 15.5 5.33579 15.5 5.75V7H13.5V5.75C13.5 4.23122 14.7312 3 16.25 3ZM5 12C3.89543 12 3 12.8954 3 14C3 15.1046 3.89543 16 5 16C6.10457 16 7 15.1046 7 14C7 12.8954 6.10457 12 5 12ZM15 12C13.8954 12 13 12.8954 13 14C13 15.1046 13.8954 16 15 16C16.1046 16 17 15.1046 17 14C17 12.8954 16.1046 12 15 12Z" fill="#202122"/>
</svg>
