<svg width="20" height="20" viewBox="0 0 20 20" fill="none" xmlns="http://www.w3.org/2000/svg">
<path d="M11.0908 3H5V17H15V13.5H17V19H3V1H11.0908V3Z" fill="#202122"/>
<path d="M17 11.5H15V9.5H17V11.5Z" fill="#202122"/>
<path d="M16 0.5C17.0152 0.5 17.7942 0.924747 18.3018 1.53125C18.7829 2.10632 18.9999 2.8179 19 3.42285C19 4.33761 18.6401 4.94791 18.2012 5.40723C18.0101 5.6071 17.793 5.78933 17.6416 5.9209C17.4739 6.06668 17.3464 6.18328 17.2383 6.30957C17.0795 6.49534 17 6.82888 17 7.47363V7.5H15V7.47363C15 6.82899 15.04 5.80289 15.7197 5.00879C15.93 4.76313 16.1519 4.56515 16.3291 4.41113C16.5226 4.24293 16.6463 4.14004 16.7559 4.02539C16.9182 3.85547 17 3.71871 17 3.42285C16.9999 3.25868 16.9299 3.00842 16.7676 2.81445C16.6314 2.65182 16.4096 2.5 16 2.5C15.3957 2.50005 15 2.97567 15 3.5V4H13V3.5C13 2.02438 14.1438 0.500052 16 0.5Z" fill="#202122"/>
</svg>
