<svg width="20" height="20" viewBox="0 0 20 20" fill="none" xmlns="http://www.w3.org/2000/svg">
<path d="M17 11H15V3H5V17H12V19H3V1H17V11Z" fill="#202122"/>
<path fill-rule="evenodd" clip-rule="evenodd" d="M10 7.5C11.933 7.5 13.5 9.067 13.5 11C13.5 11.6026 13.3463 12.169 13.0781 12.6641L17.207 16.793L15.793 18.207L11.6641 14.0781C11.169 14.3463 10.6026 14.5 10 14.5C8.067 14.5 6.5 12.933 6.5 11C6.5 9.067 8.067 7.5 10 7.5ZM10 9.5C9.17157 9.5 8.5 10.1716 8.5 11C8.5 11.8284 9.17157 12.5 10 12.5C10.8284 12.5 11.5 11.8284 11.5 11C11.5 10.1716 10.8284 9.5 10 9.5Z" fill="#202122"/>
</svg>
