<svg width="20" height="21" viewBox="0 0 20 21" fill="none" xmlns="http://www.w3.org/2000/svg">
<path d="M15 14H13V6H3V19H10V21H1V4H15V14Z" fill="#202122"/>
<path fill-rule="evenodd" clip-rule="evenodd" d="M8 10C9.65685 10 11 11.3431 11 13C11 13.4626 10.8911 13.8988 10.7041 14.29L14.207 17.793L12.793 19.207L9.29004 15.7041C8.89875 15.8911 8.4626 16 8 16C6.34315 16 5 14.6569 5 13C5 11.3431 6.34315 10 8 10ZM8 12C7.44772 12 7 12.4477 7 13C7 13.5523 7.44772 14 8 14C8.55228 14 9 13.5523 9 13C9 12.4477 8.55228 12 8 12Z" fill="#202122"/>
<path d="M19 16H17V2H5V0H19V16Z" fill="#202122"/>
</svg>
