<svg width="20" height="20" viewBox="0 0 20 20" fill="none" xmlns="http://www.w3.org/2000/svg">
<path fill-rule="evenodd" clip-rule="evenodd" d="M10 1C10.6904 1 11.25 1.55964 11.25 2.25V2.6416C13.7363 3.20949 15.5918 5.43335 15.5918 8.0918V12.4404L18.2871 15.8838L17.5 17.5H12.1924C11.9649 18.5018 11.0707 19.25 10 19.25C8.92935 19.25 8.03513 18.5018 7.80762 17.5H2.5L1.71289 15.8838L4.4082 12.4404V8.0918C4.40822 5.43334 6.26366 3.20949 8.75 2.6416V2.25C8.75 1.55964 9.30964 1 10 1ZM10 4.5C8.0163 4.5 6.40822 6.1081 6.4082 8.0918V13.1309L4.55273 15.5H15.4473L13.5918 13.1309V8.0918C13.5918 6.1081 11.9837 4.5 10 4.5Z" fill="#202122"/>
</svg>
