<svg width="20" height="20" viewBox="0 0 20 20" fill="none" xmlns="http://www.w3.org/2000/svg">
<path fill-rule="evenodd" clip-rule="evenodd" d="M11.7568 2.00684C14.3989 2.14053 16.5 4.32472 16.5 7C16.5 7.98179 16.2154 8.89645 15.7266 9.66895C16.5177 10.5533 17 11.7199 17 13C17 15.6753 14.8989 17.8595 12.2568 17.9932L12 18H3V2H11.5L11.7568 2.00684ZM7 14H12C12.5523 14 13 13.5523 13 13C13 12.4477 12.5523 12 12 12H7V14ZM7 8H11.5C12.0523 8 12.5 7.55228 12.5 7C12.5 6.44772 12.0523 6 11.5 6H7V8Z" fill="#202122"/>
</svg>
