<svg width="20" height="20" viewBox="0 0 20 20" fill="none" xmlns="http://www.w3.org/2000/svg">
<path fill-rule="evenodd" clip-rule="evenodd" d="M4.87598 1C6.78093 1.00002 8.60195 1.70988 10 2.96582C11.398 1.70988 13.2191 1.00002 15.124 1H19V17H15.124C13.4414 17 11.8458 17.7475 10.7686 19.04H9.23145C8.15418 17.7475 6.55861 17 4.87598 17H1V1H4.87598ZM3 15H4.87598C6.35425 15 7.78126 15.4286 9 16.207V4.7793C7.93246 3.64756 6.44198 3.00002 4.87598 3H3V15ZM15.124 3C13.558 3.00002 12.0675 3.64756 11 4.7793V16.207C12.2187 15.4286 13.6458 15 15.124 15H17V3H15.124Z" fill="#202122"/>
</svg>
