<svg width="20" height="20" viewBox="0 0 20 20" fill="none" xmlns="http://www.w3.org/2000/svg">
<path d="M15.8662 18.1621L14.1348 19.1621L12.0098 15.4814L13.7412 14.4814L15.8662 18.1621Z" fill="#202122"/>
<path d="M7.99121 15.4756L5.86621 19.1562L4.13379 18.1562L6.25879 14.4756L7.99121 15.4756Z" fill="#202122"/>
<path fill-rule="evenodd" clip-rule="evenodd" d="M10 6C12.2091 6 14 7.79086 14 10C14 12.2091 12.2091 14 10 14C7.79086 14 6 12.2091 6 10C6 7.79086 7.79086 6 10 6ZM10 8C8.89543 8 8 8.89543 8 10C8 11.1046 8.89543 12 10 12C11.1046 12 12 11.1046 12 10C12 8.89543 11.1046 8 10 8Z" fill="#202122"/>
<path d="M4.25488 11.0039H0.00488281V9.00391H4.25488V11.0039Z" fill="#202122"/>
<path d="M20.0049 11.0039H15.7549V9.00391H20.0049V11.0039Z" fill="#202122"/>
<path d="M7.99121 4.52148L6.25977 5.52148L4.13477 1.84082L5.86621 0.84082L7.99121 4.52148Z" fill="#202122"/>
<path d="M15.8662 1.83594L13.7412 5.5166L12.0088 4.5166L14.1348 0.835938L15.8662 1.83594Z" fill="#202122"/>
</svg>
