<svg width="20" height="20" viewBox="0 0 20 20" fill="none" xmlns="http://www.w3.org/2000/svg">
<path fill-rule="evenodd" clip-rule="evenodd" d="M10 8C11.6569 8 13 9.34315 13 11C13 12.6569 11.6569 14 10 14C8.34315 14 7 12.6569 7 11C7 9.34315 8.34315 8 10 8ZM10 10C9.44772 10 9 10.4477 9 11C9 11.5523 9.44772 12 10 12C10.5523 12 11 11.5523 11 11C11 10.4477 10.5523 10 10 10Z" fill="#202122"/>
<path fill-rule="evenodd" clip-rule="evenodd" d="M4 4H6V2H14V4H20V18H0V4H2V2H4V4ZM8 6H2V16H18V6H12V4H8V6Z" fill="#202122"/>
</svg>
