<svg width="20" height="20" viewBox="0 0 20 20" fill="none" xmlns="http://www.w3.org/2000/svg">
<path fill-rule="evenodd" clip-rule="evenodd" d="M10 1C14.9706 1 19 5.02944 19 10C19 14.9706 14.9706 19 10 19C5.02944 19 1 14.9706 1 10C1 5.02944 5.02944 1 10 1ZM4.39355 5.80566C3.51773 6.97448 3 8.42706 3 10C3 13.866 6.13401 17 10 17C11.5729 17 13.0246 16.4812 14.1934 15.6055L4.39355 5.80566ZM10 3C8.42832 3 6.97692 3.51705 5.80859 4.3916L15.6064 14.1904C16.4811 13.022 17 11.5718 17 10C17 6.13401 13.866 3 10 3Z" fill="#202122"/>
</svg>
