<svg width="20" height="20" viewBox="0 0 20 20" fill="none" xmlns="http://www.w3.org/2000/svg">
<path d="M10.0068 8.58984L12.125 6.47266L13.5391 7.88672L11.4209 10.0039L13.5391 12.123L12.125 13.5371L10.0068 11.4189L7.88184 13.5439L6.46777 12.1299L8.59277 10.0049L6.46777 7.87988L7.88281 6.46582L10.0068 8.58984Z" fill="#202122"/>
<path fill-rule="evenodd" clip-rule="evenodd" d="M10 1C14.9706 1 19 5.02944 19 10C19 14.9706 14.9706 19 10 19C5.02944 19 1 14.9706 1 10C1 5.02944 5.02944 1 10 1ZM10 3C6.13401 3 3 6.13401 3 10C3 13.866 6.13401 17 10 17C13.866 17 17 13.866 17 10C17 6.13401 13.866 3 10 3Z" fill="#202122"/>
</svg>
