<svg width="20" height="20" viewBox="0 0 20 20" fill="none" xmlns="http://www.w3.org/2000/svg">
<path d="M9 3H7C5.89543 3 5 3.89543 5 5V5.75781C4.99988 6.81851 4.57816 7.8359 3.82812 8.58594L2.91406 9.5L3.82812 10.4141C4.57816 11.1641 4.99988 12.1815 5 13.2422V15C5 16.1046 5.89543 17 7 17H9V19H7C4.79086 19 3 17.2091 3 15V13.2422C2.99988 12.7119 2.78903 12.2031 2.41406 11.8281L0.792969 10.207V8.79297L2.41406 7.17188C2.78903 6.79691 2.99988 6.28808 3 5.75781V5C3 2.79086 4.79086 1 7 1H9V3Z" fill="#202122"/>
<path d="M13 1C15.2091 1 17 2.79086 17 5V5.75781C17.0001 6.28808 17.211 6.79691 17.5859 7.17188L19.207 8.79297V10.207L17.5859 11.8281C17.211 12.2031 17.0001 12.7119 17 13.2422V15C17 17.2091 15.2091 19 13 19H11V17H13C14.1046 17 15 16.1046 15 15V13.2422C15.0001 12.1815 15.4218 11.1641 16.1719 10.4141L17.0859 9.5L16.1719 8.58594C15.4218 7.8359 15.0001 6.81852 15 5.75781V5C15 3.89543 14.1046 3 13 3H11V1H13Z" fill="#202122"/>
</svg>
