<svg width="20" height="20" viewBox="0 0 20 20" fill="none" xmlns="http://www.w3.org/2000/svg">
<path fill-rule="evenodd" clip-rule="evenodd" d="M5 3.5H7V9.5H5V19H3V9.5H1V3.5H3V1H5V3.5ZM3 7.5H5V5.5H3V7.5Z" fill="#202122"/>
<path fill-rule="evenodd" clip-rule="evenodd" d="M11 10.5H13V16.5H11V19H9V16.5H7V10.5H9V1H11V10.5ZM9 14.5H11V13H9V14.5Z" fill="#202122"/>
<path fill-rule="evenodd" clip-rule="evenodd" d="M17 3.5H19V9.5H17V19H15V9.5H13V3.5H15V1H17V3.5ZM15 7.5H17V5.5H15V7.5Z" fill="#202122"/>
</svg>
