<svg width="20" height="20" viewBox="0 0 20 20" fill="none" xmlns="http://www.w3.org/2000/svg">
<path d="M9 19H7V17H9V19Z" fill="#202122"/>
<path d="M13 19H11V17H13V19Z" fill="#202122"/>
<path d="M17 19H15V17H17V19Z" fill="#202122"/>
<path d="M19 17H17V15H19V17Z" fill="#202122"/>
<path fill-rule="evenodd" clip-rule="evenodd" d="M10 0C11.6569 0 13 1.34315 13 3C13 4.65685 11.6569 6 10 6C9.64888 6 9.31314 5.93604 9 5.8252V7H15V9H9V15H7V9H5.82617C5.93694 9.31306 6 9.649 6 10C6 11.6569 4.65685 13 3 13C1.34315 13 -7.24234e-08 11.6569 0 10C7.24234e-08 8.34315 1.34315 7 3 7H7V3C7 1.34315 8.34315 0 10 0ZM3 9C2.44772 9 2 9.44772 2 10C2 10.5523 2.44772 11 3 11C3.55228 11 4 10.5523 4 10C4 9.44772 3.55228 9 3 9ZM10 2C9.44772 2 9 2.44772 9 3C9 3.55228 9.44772 4 10 4C10.5523 4 11 3.55228 11 3C11 2.44772 10.5523 2 10 2Z" fill="#202122"/>
<path d="M19 13H17V11H19V13Z" fill="#202122"/>
<path d="M19 9H17V7H19V9Z" fill="#202122"/>
</svg>
