<svg width="20" height="20" viewBox="0 0 20 20" fill="none" xmlns="http://www.w3.org/2000/svg">
<path d="M6.25 12.5C6.94036 12.5 7.5 13.0596 7.5 13.75C7.5 14.4404 6.94036 15 6.25 15C5.55964 15 5 14.4404 5 13.75C5 13.0596 5.55964 12.5 6.25 12.5Z" fill="#202122"/>
<path d="M13.75 12.5C14.4404 12.5 15 13.0596 15 13.75C15 14.4404 14.4404 15 13.75 15C13.0596 15 12.5 14.4404 12.5 13.75C12.5 13.0596 13.0596 12.5 13.75 12.5Z" fill="#202122"/>
<path d="M10 8.75C10.6904 8.75 11.25 9.30964 11.25 10C11.25 10.6904 10.6904 11.25 10 11.25C9.30964 11.25 8.75 10.6904 8.75 10C8.75 9.30964 9.30964 8.75 10 8.75Z" fill="#202122"/>
<path d="M6.25 5C6.94036 5 7.5 5.55964 7.5 6.25C7.5 6.94036 6.94036 7.5 6.25 7.5C5.55964 7.5 5 6.94036 5 6.25C5 5.55964 5.55964 5 6.25 5Z" fill="#202122"/>
<path d="M13.75 5C14.4404 5 15 5.55964 15 6.25C15 6.94036 14.4404 7.5 13.75 7.5C13.0596 7.5 12.5 6.94036 12.5 6.25C12.5 5.55964 13.0596 5 13.75 5Z" fill="#202122"/>
<path fill-rule="evenodd" clip-rule="evenodd" d="M19 19H1V1H19V19ZM3 17H17V3H3V17Z" fill="#202122"/>
</svg>
