<svg width="20" height="20" viewBox="0 0 20 20" fill="none" xmlns="http://www.w3.org/2000/svg">
<path d="M8 10.2148L4.45508 13.7598L3.47949 16.1768L5.92188 15.2295L8.15137 13H10.9795L7.19434 16.7852C7.09601 16.8833 6.97749 16.9594 6.84766 17.0098L2.0498 18.873L0.753906 17.5723L2.6709 12.8281C2.72096 12.7043 2.79598 12.5917 2.89062 12.4971L8 7.38672V10.2148Z" fill="#202122"/>
<path fill-rule="evenodd" clip-rule="evenodd" d="M15 0C16.6569 7.24234e-08 18 1.34315 18 3V5H20V11H10V5H12V3C12 1.34315 13.3431 -7.24234e-08 15 0ZM15 2C14.4477 2 14 2.44772 14 3V5H16V3C16 2.44772 15.5523 2 15 2Z" fill="#202122"/>
</svg>
