<svg width="20" height="20" viewBox="0 0 20 20" fill="none" xmlns="http://www.w3.org/2000/svg">
<path d="M15 16H10.2773L5.51465 18.8574L4 18V16H1V14H6V16.2334L9.72266 14H13V7.5H10V5.5H15V16Z" fill="#202122"/>
<path d="M19 14H17V4H10V2H19V14Z" fill="#202122"/>
<path fill-rule="evenodd" clip-rule="evenodd" d="M5 2C6.65685 2 8 3.34315 8 5C8 6.13366 7.37025 7.11874 6.44238 7.62891C7.91757 8.04042 9 9.39356 9 11V12H7V11C7 10.1716 6.32843 9.5 5.5 9.5H4.5C3.67157 9.5 3 10.1716 3 11V12H1V11C1 9.39388 2.08191 8.04073 3.55664 7.62891C2.62919 7.11862 2 6.13335 2 5C2 3.34315 3.34315 2 5 2ZM5 4C4.44772 4 4 4.44772 4 5C4 5.55228 4.44772 6 5 6C5.55228 6 6 5.55228 6 5C6 4.44772 5.55228 4 5 4Z" fill="#202122"/>
</svg>
