<svg width="20" height="20" viewBox="0 0 20 20" fill="none" xmlns="http://www.w3.org/2000/svg">
<path d="M8.75488 9.45898L4.45508 13.7598L3.47949 16.1768L5.92188 15.2295L10.2236 10.9268L11.6377 12.3408L7.19434 16.7852C7.09601 16.8833 6.97749 16.9594 6.84766 17.0098L2.0498 18.873L0.753906 17.5723L2.6709 12.8281C2.72096 12.7043 2.79598 12.5917 2.89062 12.4971L7.3418 8.04492L8.75488 9.45898Z" fill="#202122"/>
<path d="M14.124 1.5L11.124 4.5H14C17.3137 4.5 20 7.18629 20 10.5V14.5H18V10.5C18 8.29086 16.2091 6.5 14 6.5H11.124L14.124 9.5L12.71 10.9141L8.00293 6.20703V4.79297L12.71 0.0859375L14.124 1.5Z" fill="#202122"/>
</svg>
