<svg width="20" height="20" viewBox="0 0 20 20" fill="none" xmlns="http://www.w3.org/2000/svg">
<path fill-rule="evenodd" clip-rule="evenodd" d="M6.40027 1L1 6.3991V13.5991L6.40027 19H13.6006L19 13.5991V6.3991L13.6006 1H6.40027Z" fill="#F54739"/>
<path d="M13.6006 1L19 6.39941V13.5986L13.6006 19H6.40039L1 13.5986V6.39941L6.40039 1H13.6006ZM3 7.22754V12.7705L7.22852 17H12.7725L17 12.7715V7.22754L12.7725 3H7.22852L3 7.22754Z" fill="#3C1A13"/>
<path d="M10 13C10.5523 13 11 13.4477 11 14C11 14.5523 10.5523 15 10 15C9.44772 15 9 14.5523 9 14C9 13.4477 9.44772 13 10 13Z" fill="white"/>
<path d="M11 11H9V5H11V11Z" fill="white"/>
</svg>
