<svg width="20" height="20" viewBox="0 0 20 20" fill="none" xmlns="http://www.w3.org/2000/svg">
<path fill-rule="evenodd" clip-rule="evenodd" d="M19.2539 17.8398L17.8398 19.2539L14.1992 15.6133C11.457 17.6755 7.54588 17.4599 5.0498 14.9639L0.792969 10.707V9.29297L4.33496 5.74902L0.871094 2.28516L2.28516 0.871094L19.2539 17.8398ZM2.91406 10L6.46484 13.5498C8.17785 15.2626 10.8236 15.4722 12.7656 14.1797L10.5156 11.9297C10.3509 11.9736 10.1786 12 10 12C8.89551 12 8.00012 11.1045 8 10C8.00002 9.8212 8.0253 9.64833 8.06934 9.4834L5.75 7.16406L2.91406 10Z" fill="#202122"/>
<path d="M7.63672 3.39453C10.1057 2.51145 12.9718 3.05828 14.9492 5.03516L19.207 9.29297V10.707L17.0771 12.835L15.6631 11.4209L17.0859 10L13.5352 6.4502C12.3751 5.29026 10.7868 4.81873 9.2793 5.03711L7.63672 3.39453Z" fill="#202122"/>
</svg>
