<svg width="20" height="20" viewBox="0 0 20 20" fill="none" xmlns="http://www.w3.org/2000/svg">
<path d="M10 7.99959C11.1044 7.99959 11.9998 8.89521 12 9.99959C12 11.1042 11.1046 11.9996 10 11.9996C8.89543 11.9996 8 11.1042 8 9.99959C8.00023 8.89521 8.89557 7.99959 10 7.99959Z" fill="#202122"/>
<path fill-rule="evenodd" clip-rule="evenodd" d="M5.0498 5.03572C7.78339 2.30214 12.2155 2.30231 14.9492 5.03572L19.207 9.29256V10.7076L14.9492 14.9644C12.2155 17.6978 7.78337 17.698 5.0498 14.9644L0.792969 10.7076V9.29256L5.0498 5.03572ZM13.5352 6.44978C11.5826 4.49752 8.41741 4.49757 6.46484 6.44978L2.91406 9.99959L6.46484 13.5504C8.41739 15.5025 11.5826 15.5025 13.5352 13.5504L17.0859 9.99959L13.5352 6.44978Z" fill="#202122"/>
</svg>
