<svg width="20" height="20" viewBox="0 0 20 20" fill="none" xmlns="http://www.w3.org/2000/svg">
<path d="M19.707 12.7072L16.9141 15.5002L19.707 18.2932L18.293 19.7072L15.5 16.9143L12.707 19.7072L11.293 18.2932L14.0859 15.5002L11.293 12.7072L12.707 11.2932L15.5 14.0861L18.293 11.2932L19.707 12.7072Z" fill="#202122"/>
<path d="M10.3125 0.944541C11.9514 -0.354094 14.3266 -0.11356 15.6729 1.48653L16.7656 2.78536L15.2344 4.07247L14.1426 2.77364C13.4927 2.00125 12.3458 1.88601 11.5547 2.5129C11.2568 2.74906 11.0379 3.07095 10.9277 3.43478L10.1504 6.00021H13V8.00021H9.54492L7.98633 13.1457C7.75794 13.8997 7.30495 14.5666 6.6875 15.0559C5.04858 16.3544 2.67337 16.1139 1.32715 14.5139L0.234375 13.215L1.76562 11.9279L2.85742 13.2268C3.50727 13.9991 4.6542 14.1143 5.44531 13.4875C5.7432 13.2514 5.96205 12.9294 6.07227 12.5656L7.45508 8.00021H5V6.00021H8.06055L9.01367 2.8547C9.24204 2.10071 9.69505 1.43382 10.3125 0.944541Z" fill="#202122"/>
</svg>
