<svg width="20" height="20" viewBox="0 0 20 20" fill="none" xmlns="http://www.w3.org/2000/svg">
<path d="M10 1C14.9705 1.00004 19 5.02946 19 10C19 14.9705 14.9705 19 10 19C6.08053 19 2.74837 16.4949 1.5127 13H3.67383C4.79742 15.3652 7.20858 17 10 17C13.866 17 17 13.866 17 10C17 6.13403 13.866 3.00004 10 3C7.20858 3.00004 4.79742 4.6348 3.67383 7H1.5127C2.74837 3.50509 6.08053 1.00004 10 1Z" fill="#202122"/>
<path d="M15 9.29297V10.707L11.3096 14.4141L9.89551 13L11.8955 11H1V9H11.8955L9.89551 7L11.3096 5.58594L15 9.29297Z" fill="#202122"/>
</svg>
