<svg width="20" height="20" viewBox="0 0 20 20" fill="none" xmlns="http://www.w3.org/2000/svg">
<path fill-rule="evenodd" clip-rule="evenodd" d="M9.99994 1C14.9705 1 18.9999 5.02944 18.9999 10C18.9999 14.9706 14.9705 19 9.99994 19C5.02938 19 0.999939 14.9706 0.999939 10C0.999939 5.02944 5.02938 1 9.99994 1ZM8.02826 11C8.12899 12.846 8.50097 14.4313 8.99896 15.5518C9.293 16.2133 9.59197 16.6246 9.8222 16.8438C9.90324 16.9209 9.96284 16.9608 9.99994 16.9824C10.037 16.9608 10.0966 16.9209 10.1777 16.8438C10.4079 16.6246 10.7069 16.2133 11.0009 15.5518C11.4989 14.4313 11.8709 12.846 11.9716 11H8.02826ZM3.0722 11C3.42017 13.4322 5.01775 15.4595 7.19427 16.4131C6.55664 15.0005 6.12902 13.1103 6.02533 11H3.0722ZM13.9745 11C13.8709 13.1105 13.4424 15.0004 12.8046 16.4131C14.9816 15.4597 16.5797 13.4325 16.9277 11H13.9745ZM7.19427 3.58594C5.01757 4.53943 3.42019 6.5677 3.0722 9H6.02533C6.12903 6.8893 6.55643 4.99866 7.19427 3.58594ZM9.99994 3.0166C9.96287 3.03813 9.90355 3.07885 9.8222 3.15625C9.59197 3.37536 9.293 3.78666 8.99896 4.44824C8.50097 5.56872 8.12899 7.15397 8.02826 9H11.9716C11.8709 7.15397 11.4989 5.56872 11.0009 4.44824C10.7069 3.78666 10.4079 3.37536 10.1777 3.15625C10.0963 3.07885 10.037 3.03813 9.99994 3.0166ZM12.8046 3.58594C13.4426 4.9987 13.8708 6.88912 13.9745 9H16.9277C16.5796 6.5674 14.9818 4.53928 12.8046 3.58594Z" fill="#202122"/>
</svg>
