<svg width="20" height="20" viewBox="0 0 20 20" fill="none" xmlns="http://www.w3.org/2000/svg">
<path d="M15.5283 18.5879L13.7969 19.5879L11.6719 15.9072L13.4033 14.9072L15.5283 18.5879Z" fill="#202122"/>
<path d="M7.47754 16.0137L6.33691 17.9893L4.60449 16.9893L5.74512 15.0137L7.47754 16.0137Z" fill="#202122"/>
<path fill-rule="evenodd" clip-rule="evenodd" d="M10.2061 6.00488C12.3194 6.11211 14 7.85996 14 10C14 12.14 12.3194 13.8879 10.2061 13.9951L10 14C7.79086 14 6 12.2091 6 10C6 7.79086 7.79086 6 10 6L10.2061 6.00488ZM10 12C11.1046 12 12 11.1046 12 10C12 8.96435 11.2128 8.113 10.2041 8.01074L10 8V12Z" fill="#202122"/>
<path d="M3.73242 9.52637V11.5264H1.45117V9.52637H3.73242Z" fill="#202122"/>
<path d="M19.667 11.4297H15.417V9.42969H19.667V11.4297Z" fill="#202122"/>
<path d="M7.65332 4.94824L5.92188 5.94824L4.78125 3.97266L6.5127 2.97266L7.65332 4.94824Z" fill="#202122"/>
<path d="M15.5283 2.2627L13.4033 5.94336L11.6709 4.94336L13.7969 1.2627L15.5283 2.2627Z" fill="#202122"/>
</svg>
