<svg width="20" height="20" viewBox="0 0 20 20" fill="none" xmlns="http://www.w3.org/2000/svg">
<path fill-rule="evenodd" clip-rule="evenodd" d="M11.0387 3.65566C13.1967 1.32434 16.9761 1.47713 18.9321 3.97445C20.4527 5.91603 20.3382 8.64872 18.6604 10.4612L10.757 19H9.24289L1.33951 10.4612C-0.338175 8.64877 -0.452623 5.91602 1.06784 3.97445C3.02386 1.47714 6.8032 1.32435 8.96123 3.65566L9.99997 4.77683L11.0387 3.65566ZM17.3111 5.19862C16.1318 3.69316 13.8528 3.6019 12.5519 5.00735L10.757 6.9466H9.24289L7.44807 5.00735C6.1471 3.60191 3.86809 3.69316 2.68886 5.19862C1.77219 6.36912 1.84126 8.01684 2.85266 9.1095L9.99997 16.8302L17.1473 9.1095C18.1587 8.01679 18.2279 6.36913 17.3111 5.19862Z" fill="#202122"/>
</svg>
