<svg width="20" height="20" viewBox="0 0 20 20" fill="none" xmlns="http://www.w3.org/2000/svg">
<path d="M3.33631 9.06999L11 17.5L18.6636 9.06998C20.0157 7.58267 20.1079 5.34026 18.8823 3.74705C17.3546 1.76104 14.4289 1.57103 12.6572 3.34277L11 5.00001L9.34273 3.34277C7.57099 1.57104 4.64533 1.76104 3.11763 3.74705C1.89208 5.34026 1.9842 7.58267 3.33631 9.06999Z" fill="#F54739"/>
<path d="M10.9502 2.63568C13.1488 0.437101 16.7791 0.673161 18.6748 3.13763C20.1955 5.11463 20.081 7.89654 18.4033 9.74213L10 18.9863L1.59669 9.74213C-0.0810155 7.89654 -0.195443 5.11463 1.32521 3.13763C3.22096 0.67316 6.85124 0.437102 9.04982 2.63568L10 3.58588L10.9502 2.63568ZM17.0899 4.35638C15.9302 2.84896 13.7091 2.70489 12.3643 4.04974L10 6.414L7.63575 4.04974C6.29089 2.70489 4.06985 2.84896 2.91017 4.35638C1.97987 5.56577 2.04982 7.2684 3.07618 8.3974L10 16.0126L16.9238 8.3974C17.9502 7.2684 18.0202 5.56577 17.0899 4.35638Z" fill="#3C1A13"/>
</svg>
