<svg width="20" height="20" viewBox="0 0 20 20" fill="none" xmlns="http://www.w3.org/2000/svg">
<path d="M11 15.5H9V13.5H11V15.5Z" fill="#202122"/>
<path d="M10 4.5C11.0151 4.5 11.787 4.96889 12.2832 5.57422C12.7555 6.15045 13 6.87276 13 7.5C13 8.18057 12.8261 8.74236 12.5332 9.20605C12.2503 9.65402 11.8874 9.95894 11.5996 10.1748C11.464 10.2765 11.3102 10.3828 11.2148 10.4512C11.1123 10.5247 11.0465 10.576 11 10.6172V11.5H9V10.5C9 9.85488 9.34598 9.41984 9.63672 9.15332C9.77715 9.0246 9.92806 8.91412 10.0508 8.82617C10.1896 8.72667 10.2861 8.66089 10.4004 8.5752C10.6125 8.41612 10.7498 8.28343 10.8418 8.1377C10.9239 8.00764 11 7.8194 11 7.5C11 7.34808 10.924 7.07074 10.7363 6.8418C10.5725 6.64198 10.3447 6.5 10 6.5C9.7183 6.5 9.48221 6.63342 9.28613 6.875C9.06628 7.14608 9 7.42956 9 7.5H7C7 6.88871 7.28028 6.17258 7.7334 5.61426C8.21062 5.02629 8.97491 4.5 10 4.5Z" fill="#202122"/>
<path fill-rule="evenodd" clip-rule="evenodd" d="M10 1C14.9706 1 19 5.02944 19 10C19 14.9706 14.9706 19 10 19C5.02944 19 1 14.9706 1 10C1 5.02944 5.02944 1 10 1ZM10 3C6.13401 3 3 6.13401 3 10C3 13.866 6.13401 17 10 17C13.866 17 17 13.866 17 10C17 6.13401 13.866 3 10 3Z" fill="#202122"/>
</svg>
