<svg width="20" height="20" viewBox="0 0 20 20" fill="none" xmlns="http://www.w3.org/2000/svg">
<path d="M11 18H9V16H11V18Z" fill="#202122"/>
<path d="M10 2C11.4966 2 12.7607 2.43263 13.6602 3.26758C14.5647 4.10728 15 5.26175 15 6.5C15 7.68218 14.5572 8.50744 13.9062 9.1377C13.6038 9.43039 13.2676 9.67157 12.9551 9.87988C12.5928 10.1214 12.3686 10.2534 12.0332 10.4824C11.3511 10.9481 11 11.8591 11 13V14H9V13C9 11.5446 9.44326 9.82941 10.9053 8.83105C11.2042 8.62698 11.6146 8.36986 11.8457 8.21582C12.1263 8.02877 12.3431 7.86713 12.5146 7.70117C12.8116 7.41376 13 7.0938 13 6.5C13 5.7383 12.7418 5.14271 12.2998 4.73242C11.8527 4.31747 11.1168 4 10 4C7.97911 4 7 5.636 7 6.5V7.5H5V6.5C5 4.614 6.79374 2 10 2Z" fill="#202122"/>
</svg>
