<svg width="20" height="20" viewBox="0 0 20 20" fill="none" xmlns="http://www.w3.org/2000/svg">
<path d="M10 1C14.9706 1 19 5.02944 19 10C19 14.9706 14.9706 19 10 19V17C13.866 17 17 13.866 17 10C17 6.13401 13.866 3 10 3C6.13401 3 3 6.13401 3 10C3 11.776 3.66033 13.3953 4.75 14.6299C5.12011 15.0492 5.54053 15.4224 6 15.7432V13H8.00098L8 18L7 19H2V17L4.3457 16.999C3.9522 16.6807 3.58449 16.3321 3.25 15.9531C1.85036 14.3672 1 12.2817 1 10C1 5.02944 5.02944 1 10 1Z" fill="#202122"/>
<path d="M11 10H14.5V12H9V6H11V10Z" fill="#202122"/>
</svg>
