<svg width="20" height="20" viewBox="0 0 20 20" fill="none" xmlns="http://www.w3.org/2000/svg">
<path d="M10 3H3V17H17V13H19V19H1V1H10V3Z" fill="#202122"/>
<path d="M10 13H15V15H5L8 11L10 13Z" fill="#202122"/>
<path fill-rule="evenodd" clip-rule="evenodd" d="M15 0C16.6569 7.24234e-08 18 1.34315 18 3V5H20V11H10V5H12V3C12 1.34315 13.3431 -7.99783e-09 15 0ZM15 2C14.4477 2 14 2.44772 14 3V5H16V3C16 2.44772 15.5523 2 15 2Z" fill="#202122"/>
<path d="M6.25 5C6.94036 5 7.5 5.55964 7.5 6.25C7.5 6.94036 6.94036 7.5 6.25 7.5C5.55964 7.5 5 6.94036 5 6.25C5 5.55964 5.55964 5 6.25 5Z" fill="#202122"/>
</svg>
