<svg width="20" height="20" viewBox="0 0 20 20" fill="none" xmlns="http://www.w3.org/2000/svg">
<path d="M13.75 6C14.5784 6 15.25 6.67157 15.25 7.5C15.25 8.32843 14.5784 9 13.75 9C12.9216 9 12.25 8.32843 12.25 7.5C12.25 6.67157 12.9216 6 13.75 6Z" fill="#202122"/>
<path fill-rule="evenodd" clip-rule="evenodd" d="M13.7061 1.5C17.1275 1.50009 20 4.13326 20 7.5C20 10.8667 17.1275 13.4999 13.7061 13.5C13.0558 13.5 12.4261 13.4054 11.833 13.2295C11.8277 13.2279 11.8227 13.2252 11.8174 13.2236L9.85547 15H9V17H7V18.5H1L0 17.5V15.0645L7.44629 8.13086C7.4235 7.92331 7.41211 7.71282 7.41211 7.5C7.41211 4.13321 10.2845 1.5 13.7061 1.5ZM13.7061 3.5C11.2799 3.5 9.41211 5.34394 9.41211 7.5C9.41211 7.77126 9.44039 8.03543 9.49512 8.29004L9.61426 8.84473L2 15.9346V16.5H5V15H7V13H9.08594L11.3857 10.9189L11.9697 11.1592C12.11 11.217 12.2545 11.2686 12.4023 11.3125C12.8119 11.434 13.2498 11.5 13.7061 11.5C16.1322 11.4999 18 9.656 18 7.5C18 5.344 16.1322 3.50009 13.7061 3.5Z" fill="#202122"/>
</svg>
