<svg width="20" height="20" viewBox="0 0 20 20" fill="none" xmlns="http://www.w3.org/2000/svg">
<path d="M17 17H3V15H17V17Z" fill="#202122"/>
<path d="M3 13H1V11H3V13Z" fill="#202122"/>
<path d="M7 13H5V11H7V13Z" fill="#202122"/>
<path d="M11 13H9V11H11V13Z" fill="#202122"/>
<path d="M15 13H13V11H15V13Z" fill="#202122"/>
<path d="M19 13H17V11H19V13Z" fill="#202122"/>
<path d="M3 9H1V7H3V9Z" fill="#202122"/>
<path d="M7 9H5V7H7V9Z" fill="#202122"/>
<path d="M11 9H9V7H11V9Z" fill="#202122"/>
<path d="M15 9H13V7H15V9Z" fill="#202122"/>
<path d="M19 9H17V7H19V9Z" fill="#202122"/>
<path d="M5 5H3V3H5V5Z" fill="#202122"/>
<path d="M9 5H7V3H9V5Z" fill="#202122"/>
<path d="M13 5H11V3H13V5Z" fill="#202122"/>
<path d="M17 5H15V3H17V5Z" fill="#202122"/>
</svg>
