<svg width="20" height="20" viewBox="0 0 20 20" fill="none" xmlns="http://www.w3.org/2000/svg">
<path fill-rule="evenodd" clip-rule="evenodd" d="M17.8346 19L16.5869 16H12.4131L11.1649 19.0012H9L13.5771 7.99609H15.4229L19.9995 19H17.8346ZM13.2451 14H15.7549L14.5 10.9824L13.2451 14Z" fill="#202122"/>
<path fill-rule="evenodd" clip-rule="evenodd" d="M7.61816 3H12V5H9.99121C9.89531 6.17627 9.50352 7.62381 8.56836 9.01953C8.40808 9.25872 8.23157 9.49428 8.04004 9.72656C8.46311 9.97108 8.92202 10.209 9.41895 10.4385L10.3271 10.8584L9.48828 12.6738L8.58105 12.2549C7.84977 11.9173 7.17387 11.5521 6.55469 11.1631C5.30004 12.1426 3.64337 12.9644 1.47949 13.4736L0.505859 13.7021L0.0478516 11.7559L1.02051 11.5264C2.65207 11.1425 3.90641 10.5722 4.87109 9.91797C3.28903 8.5266 2.31735 6.88436 2.06543 5H0V3H5.38184L4.6582 1.55273L6.44727 0.658203L7.61816 3ZM4.09375 5C4.3374 6.2815 5.06826 7.48898 6.38477 8.58594C6.58055 8.36016 6.75493 8.13354 6.90723 7.90625C7.5913 6.88528 7.88806 5.83885 7.98047 5H4.09375Z" fill="#202122"/>
</svg>
