<svg width="20" height="20" viewBox="0 0 20 20" fill="none" xmlns="http://www.w3.org/2000/svg">
<path d="M12 20H8V18H12V20Z" fill="#202122"/>
<path d="M14 16H6V14H14V16Z" fill="#202122"/>
<path d="M10 0C13.3137 0 16 2.68629 16 6C16 6.8137 15.779 7.58644 15.4756 8.32422C15.1749 9.05532 14.7649 9.81595 14.3506 10.5889C14.1199 11.0192 14 11.504 14 12H12C12 11.1822 12.1979 10.3722 12.5879 9.64453C13.0159 8.84598 13.3719 8.18132 13.626 7.56348C13.8774 6.95224 14 6.45211 14 6C14 3.79086 12.2091 2 10 2C7.79086 2 6 3.79086 6 6C6 6.45211 6.12261 6.95224 6.37402 7.56348C6.62815 8.18132 6.98409 8.84598 7.41211 9.64453C7.80211 10.3722 8 11.1822 8 12H6C6 11.504 5.88006 11.0192 5.64941 10.5889C5.23514 9.81595 4.82512 9.05532 4.52441 8.32422C4.22096 7.58644 4 6.8137 4 6C4 2.68629 6.68629 0 10 0Z" fill="#202122"/>
</svg>
