<svg width="20" height="20" viewBox="0 0 20 20" fill="none" xmlns="http://www.w3.org/2000/svg">
<path d="M5.86235 7.45306C7.56097 5.74325 10.3251 5.73808 12.0293 7.44232L12.7364 8.14935L11.3223 9.56342L10.6153 8.85638C9.69398 7.93508 8.19867 7.93711 7.28032 8.86127L4.35356 11.8095C3.29531 12.8751 3.29775 14.5951 4.35942 15.6572C5.4165 16.7142 7.12869 16.7231 8.19633 15.6767L8.24223 15.6308L8.95708 14.9316L10.3565 16.3603L9.64165 17.0595L9.59575 17.1054C7.74494 18.9194 4.77797 18.9045 2.94536 17.0722C1.10447 15.2311 1.09929 12.2478 2.93364 10.4003L5.86235 7.45306Z" fill="#202122"/>
<path d="M10.4053 2.89447C12.2562 1.08091 15.2223 1.0954 17.0547 2.92767C18.8959 4.76885 18.9012 7.75305 17.0665 9.60052L14.1387 12.5478C12.4404 14.2574 9.67602 14.2621 7.97172 12.5585L7.26469 11.8515L8.67875 10.4365L9.38579 11.1435C10.3071 12.0645 11.8016 12.0627 12.7198 11.1386L15.6475 8.19135C16.7058 7.12568 16.7027 5.40376 15.6407 4.34174C14.5837 3.28488 12.8723 3.27703 11.8047 4.32318L11.044 5.06928L9.6436 3.64056L10.3575 2.94037L10.4053 2.89447Z" fill="#202122"/>
</svg>
