<svg width="20" height="20" viewBox="0 0 20 20" fill="none" xmlns="http://www.w3.org/2000/svg">
<path d="M10.9997 6.99961H12.9997V8.99961H10.9997V10.9996H8.99966V8.99961H6.99966V6.99961H8.99966V4.99961H10.9997V6.99961Z" fill="#202122"/>
<path fill-rule="evenodd" clip-rule="evenodd" d="M4.93716 2.64902C7.73345 -0.147005 12.2668 -0.147004 15.0631 2.64902C17.5142 5.10032 17.8572 8.95565 15.8776 11.8014L10.82 19.0709H9.17935L4.12173 11.8014C2.14208 8.95557 2.48589 5.10031 4.93716 2.64902ZM13.6491 4.06308C11.6338 2.04811 8.36646 2.04811 6.35122 4.06308C4.58462 5.82971 4.3366 8.60883 5.76333 10.6598L9.99966 16.7496L14.236 10.6598C15.6627 8.60891 15.4155 5.82972 13.6491 4.06308Z" fill="#202122"/>
</svg>
