<svg width="20" height="20" viewBox="0 0 20 20" fill="none" xmlns="http://www.w3.org/2000/svg">
<path d="M7.25 20H5.25V18H7.25V20Z" fill="#202122"/>
<path d="M18.6641 15.25L17.1641 16.75L18.6641 18.25L17.25 19.6641L15.75 18.1641L14.25 19.6641L12.8359 18.25L14.3359 16.75L12.8359 15.25L14.25 13.8359L15.75 15.3359L17.25 13.8359L18.6641 15.25Z" fill="#202122"/>
<path d="M4 17H2V15H4V17Z" fill="#202122"/>
<path d="M10.5 17H8.5V15H10.5V17Z" fill="#202122"/>
<path d="M4 13H2V11H4V13Z" fill="#202122"/>
<path d="M10.5 13H8.5V11H10.5V13Z" fill="#202122"/>
<path d="M17 13H15V11H17V13Z" fill="#202122"/>
<path d="M4 9H2V7H4V9Z" fill="#202122"/>
<path d="M10.5 9H8.5V7H10.5V9Z" fill="#202122"/>
<path d="M17 9H15V7H17V9Z" fill="#202122"/>
<path d="M4 5H2V3H4V5Z" fill="#202122"/>
<path d="M10.5 5H8.5V3H10.5V5Z" fill="#202122"/>
<path d="M17 5H15V3H17V5Z" fill="#202122"/>
<path d="M13.5 2H11.5V0H13.5V2Z" fill="#202122"/>
</svg>
