<svg width="20" height="20" viewBox="0 0 20 20" fill="none" xmlns="http://www.w3.org/2000/svg">
<path fill-rule="evenodd" clip-rule="evenodd" d="M11.4264 2.52539C10.1392 4.61036 10.047 7.2448 11.4254 9.47266C12.8111 11.712 15.3496 12.9954 18.0006 12.9981L18.8502 14.5225C18.0303 15.8507 16.8426 16.9959 15.3356 17.8076C10.7957 20.2525 4.96096 18.8262 2.29947 14.5254C-0.389677 10.1795 1.23843 4.65657 5.81411 2.19141C7.31981 1.38036 8.96186 0.998572 10.5768 1L11.4264 2.52539ZM8.9147 3.16895C8.17602 3.3222 7.45052 3.58146 6.76236 3.95215C3.13719 5.90528 1.95415 10.1665 3.99966 13.4727C6.07324 16.8236 10.7257 18.0188 14.3874 16.0469C15.0285 15.7015 15.5913 15.282 16.0739 14.8106C13.5118 14.3154 11.1576 12.8417 9.72427 10.5254C8.28759 8.20348 8.08324 5.52934 8.9147 3.16895Z" fill="#202122"/>
</svg>
