<svg width="20" height="20" viewBox="0 0 20 20" fill="none" xmlns="http://www.w3.org/2000/svg">
<path fill-rule="evenodd" clip-rule="evenodd" d="M19 15.5C19 17.433 17.433 19 15.5 19C13.567 19 12 17.433 12 15.5C12 13.567 13.567 12 15.5 12C16.0367 12 16.5455 12.1201 17 12.3359V7H8V15.5C8 17.433 6.433 19 4.5 19C2.567 19 1 17.433 1 15.5C1 13.567 2.567 12 4.5 12C5.03666 12 5.54546 12.1201 6 12.3359V1H19V15.5ZM4.5 14C3.67157 14 3 14.6716 3 15.5C3 16.3284 3.67157 17 4.5 17C5.32843 17 6 16.3284 6 15.5C6 14.6716 5.32843 14 4.5 14ZM15.5 14C14.6716 14 14 14.6716 14 15.5C14 16.3284 14.6716 17 15.5 17C16.3284 17 17 16.3284 17 15.5C17 14.6716 16.3284 14 15.5 14ZM8 5H17V3H8V5Z" fill="#202122"/>
</svg>
