<svg width="20" height="20" viewBox="0 0 20 20" fill="none" xmlns="http://www.w3.org/2000/svg">
<path fill-rule="evenodd" clip-rule="evenodd" d="M7.47754 15.4902L6.33691 17.4658L4.60449 16.4658L5.74512 14.4902L7.47754 15.4902ZM15.1826 16.4658L13.4512 17.4658L12.3105 15.4902L14.042 14.4902L15.1826 16.4658ZM10 6C12.2091 6 14 7.79086 14 10C14 12.2091 12.2091 14 10 14C7.79086 14 6 12.2091 6 10C6 7.79086 7.79086 6 10 6ZM4.00195 11.0029H1.7207L1.71973 9.00293H4.00195V11.0029ZM18.2812 11.0029H16V9.00293H18.2812V11.0029ZM7.65332 4.4248L5.92188 5.4248L4.78125 3.44922L6.5127 2.44922L7.65332 4.4248ZM15.0068 3.44922L13.8662 5.4248L12.1338 4.4248L13.2744 2.44922L15.0068 3.44922Z" fill="#202122"/>
</svg>
