<svg width="20" height="20" viewBox="0 0 20 20" fill="none" xmlns="http://www.w3.org/2000/svg">
<path d="M7 3H4V17H16V12H18V19H2V1H7V3Z" fill="#202122"/>
<path fill-rule="evenodd" clip-rule="evenodd" d="M14 2.64551C14.2324 2.7147 14.4546 2.80746 14.6641 2.9209L15.8281 1.75781L17.2422 3.17188L16.0781 4.33496C16.1918 4.54475 16.2852 4.76712 16.3545 5H18V7H16.3545C16.2853 7.2326 16.1917 7.45449 16.0781 7.66406L17.2422 8.82812L15.8281 10.2422L14.6641 9.07812C14.4546 9.19162 14.2325 9.28429 14 9.35352V11H12V9.35352C11.7672 9.2842 11.5447 9.1918 11.335 9.07812L10.1719 10.2422L8.75781 8.82812L9.9209 7.66406C9.80746 7.45461 9.7147 7.23245 9.64551 7H8V5H9.64551C9.71478 4.76727 9.80728 4.54463 9.9209 4.33496L8.75781 3.17188L10.1719 1.75781L11.335 2.9209C11.5446 2.80728 11.7673 2.71478 12 2.64551V1H14V2.64551ZM13 4.5C12.1716 4.5 11.5 5.17157 11.5 6C11.5 6.82843 12.1716 7.5 13 7.5C13.8284 7.5 14.5 6.82843 14.5 6C14.5 5.17157 13.8284 4.5 13 4.5Z" fill="#202122"/>
</svg>
