<svg width="20" height="20" viewBox="0 0 20 20" fill="none" xmlns="http://www.w3.org/2000/svg">
<path d="M13.2497 10.9997C13.9399 10.9997 14.4995 11.5595 14.4997 12.2497C14.4997 12.9401 13.94 13.4997 13.2497 13.4997C12.5595 13.4995 11.9997 12.94 11.9997 12.2497C11.9998 11.5596 12.5596 10.9999 13.2497 10.9997Z" fill="#202122"/>
<path d="M6.74965 7.49973C7.43991 7.49973 7.9995 8.0595 7.99965 8.74973C7.99965 9.44008 7.44001 9.99973 6.74965 9.99973C6.05946 9.99954 5.49965 9.43997 5.49965 8.74973C5.4998 8.05962 6.05955 7.49992 6.74965 7.49973Z" fill="#202122"/>
<path d="M13.2497 6.99973C13.9399 6.99973 14.4995 7.5595 14.4997 8.24973C14.4997 8.94008 13.94 9.49973 13.2497 9.49973C12.5595 9.49954 11.9997 8.93997 11.9997 8.24973C11.9998 7.55962 12.5596 6.99992 13.2497 6.99973Z" fill="#202122"/>
<path d="M9.74965 4.99973C10.4399 4.99973 10.9995 5.5595 10.9997 6.24973C10.9997 6.94008 10.44 7.49973 9.74965 7.49973C9.05946 7.49954 8.49965 6.93997 8.49965 6.24973C8.4998 5.55962 9.05955 4.99992 9.74965 4.99973Z" fill="#202122"/>
<path fill-rule="evenodd" clip-rule="evenodd" d="M7.17153 1.45578C11.8902 -0.106174 16.9815 2.45299 18.5436 7.1716C20.1056 11.8903 17.5465 16.9816 12.8278 18.5437C12.2029 18.7505 11.3415 18.8548 10.7096 18.9109C10.3786 18.9402 10.0812 18.9594 9.86684 18.9704C9.75941 18.976 9.67108 18.9798 9.61 18.9821C9.5798 18.9833 9.55537 18.9835 9.53871 18.9841C9.53089 18.9844 9.52469 18.9849 9.52016 18.9851H9.51137L8.48305 17.9821L8.49477 14.2566C8.49604 13.8411 8.15914 13.5032 7.74379 13.5036L2.40688 13.5144L1.45571 12.8288C-0.106337 8.11009 2.45278 3.01782 7.17153 1.45578ZM16.6452 7.80051C15.4303 4.13055 11.4704 2.13966 7.80043 3.35422C4.35874 4.49352 2.39305 8.04791 3.16371 11.5124L7.73891 11.5036C9.26282 11.5008 10.4982 12.7376 10.4938 14.2614L10.485 16.9226C10.5005 16.9212 10.5162 16.921 10.5319 16.9196C11.1635 16.8637 11.8178 16.7717 12.1998 16.6452C15.8697 15.4302 17.8599 11.4705 16.6452 7.80051Z" fill="#202122"/>
</svg>
