<svg width="20" height="20" viewBox="0 0 20 20" fill="none" xmlns="http://www.w3.org/2000/svg">
<path fill-rule="evenodd" clip-rule="evenodd" d="M8 3.25C8 3.66421 8.33579 4 8.75 4C9.16421 4 9.5 3.66421 9.5 3.25V0.5H16V6H16.75C18.2688 6 19.5 7.23122 19.5 8.75C19.5 10.2688 18.2688 11.5 16.75 11.5H16V16H11V16.75C11 18.2688 9.76878 19.5 8.25 19.5C6.73122 19.5 5.5 18.2688 5.5 16.75V16H0.5V9.5H3.25C3.66421 9.5 4 9.16421 4 8.75C4 8.33579 3.66421 8 3.25 8H0.5V0.5H8V3.25ZM2.5 6H3.25C4.76878 6 6 7.23122 6 8.75C6 10.2688 4.76878 11.5 3.25 11.5H2.5V14H7.5V16.75C7.5 17.1642 7.83579 17.5 8.25 17.5C8.66421 17.5 9 17.1642 9 16.75V14H14V9.5H16.75C17.1642 9.5 17.5 9.16421 17.5 8.75C17.5 8.33579 17.1642 8 16.75 8H14V2.5H11.5V3.25C11.5 4.76878 10.2688 6 8.75 6C7.23122 6 6 4.76878 6 3.25V2.5H2.5V6Z" fill="#202122"/>
</svg>
