<svg width="20" height="20" viewBox="0 0 20 20" fill="none" xmlns="http://www.w3.org/2000/svg">
<path d="M7 0.999952V19H1V0.999952H7ZM3 17H5V2.99995H3V17Z" fill="#202122"/>
<path d="M11 0.999952V19H5V0.999952H11ZM7 17H9V2.99995H7V17Z" fill="#202122"/>
<path d="M6 12V14H2V12H6Z" fill="#202122"/>
<path d="M10 12V14H6V12H10Z" fill="#202122"/>
<path d="M14.3709 0.0751953L19.0296 17.4619L13.234 19.0148L8.5753 1.62811L14.3709 0.0751953ZM14.6483 16.5653L16.5801 16.0476L12.9566 2.52468L11.0248 3.04232L14.6483 16.5653Z" fill="#202122"/>
<path d="M16.2521 10.9592L16.7697 12.891L12.906 13.9263L12.3884 11.9945L16.2521 10.9592Z" fill="#202122"/>
</svg>
