<svg width="20" height="20" viewBox="0 0 20 20" fill="none" xmlns="http://www.w3.org/2000/svg">
<path d="M11 19H9V17H11V19Z" fill="#202122"/>
<path d="M7 18H5V16H7V18Z" fill="#202122"/>
<path d="M15 18H13V16H15V18Z" fill="#202122"/>
<path d="M4 15H2V13H4V15Z" fill="#202122"/>
<path d="M18 15H16V13H18V15Z" fill="#202122"/>
<path d="M10 1C12.2817 1 14.3672 1.85036 15.9531 3.25C16.3321 3.58449 16.6807 3.9522 16.999 4.3457L17 2H19V7L18 8H13L12.999 6H15.7432C15.4224 5.54053 15.0492 5.12011 14.6299 4.75C13.3953 3.66033 11.776 3 10 3C6.13401 3 3 6.13401 3 10V11H1V10C0.999999 5.02944 5.02944 1 10 1Z" fill="#202122"/>
</svg>
