<svg width="20" height="20" viewBox="0 0 20 20" fill="none" xmlns="http://www.w3.org/2000/svg">
<path fill-rule="evenodd" clip-rule="evenodd" d="M11 3.5H13.5C16.5376 3.5 19 5.96243 19 9V13H11V14.5H13C14.1046 14.5 15 15.3954 15 16.5V19H5V16.5C5 15.3954 5.89543 14.5 7 14.5H9V13H1V9C1 5.96243 3.46243 3.5 6.5 3.5H9V1H11V3.5ZM5.25 8C4.55964 8 4 8.55964 4 9.25C4 9.94036 4.55964 10.5 5.25 10.5C5.94036 10.5 6.5 9.94036 6.5 9.25C6.5 8.55964 5.94036 8 5.25 8ZM14.75 8C14.0596 8 13.5 8.55964 13.5 9.25C13.5 9.94036 14.0596 10.5 14.75 10.5C15.4404 10.5 16 9.94036 16 9.25C16 8.55964 15.4404 8 14.75 8Z" fill="#202122"/>
</svg>
