<svg width="20" height="20" viewBox="0 0 20 20" fill="none" xmlns="http://www.w3.org/2000/svg">
<path d="M18.4248 11.1318C17.8706 15.2913 14.3108 18.4998 10 18.5C7.09515 18.5 4.53292 17.0424 3 14.8203V17H1V12L2 11H7V13H4.23242C5.3168 15.0801 7.49332 16.5 10 16.5C13.295 16.4998 16.0187 14.0471 16.4424 10.8682L18.4248 11.1318Z" fill="#202122"/>
<path d="M10 1.5C12.9044 1.50011 15.467 2.95705 17 5.17871V3H19V8L18 9H13V7H15.7666C14.6824 4.92 12.5065 3.50012 10 3.5C6.70487 3.5 3.98029 5.9528 3.55664 9.13184L1.57422 8.86816C2.12843 4.70857 5.68904 1.5 10 1.5Z" fill="#202122"/>
</svg>
