<svg width="20" height="20" viewBox="0 0 20 20" fill="none" xmlns="http://www.w3.org/2000/svg">
<path d="M5 19H3V17H5V19Z" fill="#202122"/>
<path d="M9 19H7V17H9V19Z" fill="#202122"/>
<path d="M13 19H11V17H13V19Z" fill="#202122"/>
<path d="M17 19H15V17H17V19Z" fill="#202122"/>
<path d="M5 15H3V13H5V15Z" fill="#202122"/>
<path d="M17 15H15V13H17V15Z" fill="#202122"/>
<path d="M16.6611 5.5957L11.2861 10.9717L11.1904 11.0107L9.42285 11.7178L8.77246 11.0674L9.47949 9.2998L9.51855 9.2041L14.8936 3.82812L16.6611 5.5957Z" fill="#202122"/>
<path d="M5 11H3V9H5V11Z" fill="#202122"/>
<path d="M17 11H15V9H17V11Z" fill="#202122"/>
<path d="M5 7H3V5H5V7Z" fill="#202122"/>
<path d="M19.4902 2.76758L18.0762 4.18164L16.3086 2.41406L17.7227 1L19.4902 2.76758Z" fill="#202122"/>
<path d="M5 3H3V1H5V3Z" fill="#202122"/>
<path d="M9 3H7V1H9V3Z" fill="#202122"/>
<path d="M13 3H11V1H13V3Z" fill="#202122"/>
</svg>
