<svg width="20" height="20" viewBox="0 0 20 20" fill="none" xmlns="http://www.w3.org/2000/svg">
<path fill-rule="evenodd" clip-rule="evenodd" d="M13.5 17.9996H11.5V16.9478C10.8647 17.5966 9.97977 17.9996 9 17.9996C7.067 17.9996 5.5 16.4326 5.5 14.4996C5.50022 12.5668 7.06714 10.9996 9 10.9996C9.97956 10.9996 10.8647 11.4028 11.5 12.0513V9.49959H7.5V7.49959H13.5V17.9996ZM9 12.9996C8.17171 12.9996 7.50022 13.6713 7.5 14.4996C7.5 15.328 8.17157 15.9996 9 15.9996C9.82843 15.9996 10.5 15.328 10.5 14.4996C10.4998 13.6713 9.82829 12.9996 9 12.9996Z" fill="#202122"/>
<path d="M7.2041 2.88045C8.20428 1.88051 9.84836 1.95521 10.7539 3.04158L11.2832 3.67732C11.4359 3.86021 11.7123 3.87222 11.8809 3.70369C11.9567 3.6277 12 3.52493 12 3.41756V2.49959H14V3.41756C14 4.05536 13.7468 4.66766 13.2959 5.11873C12.2957 6.11896 10.6517 6.04427 9.74609 4.95759L9.2168 4.32185C9.06409 4.13927 8.78761 4.12725 8.61914 4.29548C8.54326 4.3714 8.50015 4.47429 8.5 4.58162V5.49959H6.5V4.58162C6.50015 3.94386 6.75314 3.33143 7.2041 2.88045Z" fill="#202122"/>
</svg>
