<svg width="20" height="20" viewBox="0 0 20 20" fill="none" xmlns="http://www.w3.org/2000/svg">
<path fill-rule="evenodd" clip-rule="evenodd" d="M12.3252 16H10.1533L8.88477 13H3.44141L2.17188 16H0L5.24219 3.61035H7.08398L12.3252 16ZM4.28711 11H8.03906L6.16309 6.56543L4.28711 11Z" fill="#202122"/>
<path fill-rule="evenodd" clip-rule="evenodd" d="M20 16H18V15.2314C17.469 15.7077 16.7695 16 16 16C14.3431 16 13 14.6569 13 13C13 11.3431 14.3431 10 16 10C16.7692 10 17.469 10.2916 18 10.7676V8.5H14.5V6.5H20V16ZM16 12C15.4477 12 15 12.4477 15 13C15 13.5523 15.4477 14 16 14C16.5523 14 17 13.5523 17 13C17 12.4477 16.5523 12 16 12Z" fill="#202122"/>
</svg>
