<svg width="20" height="20" viewBox="0 0 20 20" fill="none" xmlns="http://www.w3.org/2000/svg">
<path d="M17.8644 2.79688C20.5151 7.56824 20.3646 13.4027 17.4718 18.0312L16.8478 19.0303L15.1524 17.9697L15.7765 16.9717C18.2835 12.9603 18.4134 7.90367 16.1163 3.76855L15.1261 1.98535L16.8741 1.01465L17.8644 2.79688Z" fill="#202122"/>
<path d="M4.84776 2.03027L4.22374 3.02832C1.71666 7.03965 1.58676 12.0963 3.88389 16.2314L4.87413 18.0146L3.12608 18.9854L2.13585 17.2031C-0.514913 12.4318 -0.364437 6.59734 2.52842 1.96875L3.15245 0.969727L4.84776 2.03027Z" fill="#202122"/>
<path d="M8.0001 16H6.0001V14H8.0001V16Z" fill="#202122"/>
<path d="M11.9952 7.29102L14.0001 6.13379L15.0001 7.86621L13.0001 9.02051L14.9278 10.1338L13.9278 11.8662L11.9972 10.751L11.9991 12.999L10.0001 13.001L9.99815 10.7529L8.07139 11.8662L7.07139 10.1338L8.99913 9.02051L7.0001 7.86621L8.0001 6.13379L9.99522 7.28613L9.99424 5.00098L11.9942 4.99902L11.9952 7.29102Z" fill="#202122"/>
</svg>
