<svg width="20" height="20" viewBox="0 0 20 20" fill="none" xmlns="http://www.w3.org/2000/svg">
<path fill-rule="evenodd" clip-rule="evenodd" d="M10 7C11.6569 7 13 8.34315 13 10C13 11.6569 11.6569 13 10 13C8.34315 13 7 11.6569 7 10C7 8.34315 8.34315 7 10 7ZM10 9C9.44772 9 9 9.44772 9 10C9 10.5523 9.44772 11 10 11C10.5523 11 11 10.5523 11 10C11 9.44772 10.5523 9 10 9Z" fill="#202122"/>
<path fill-rule="evenodd" clip-rule="evenodd" d="M11.5 3.16309C12.3207 3.34233 13.0872 3.66507 13.7725 4.10449L14.9492 2.92871L17.0703 5.0498L15.8936 6.22559C16.3337 6.91145 16.6575 7.67835 16.8369 8.5H18.5V11.5H16.8369C16.6576 12.3209 16.3341 13.0871 15.8945 13.7725L17.0713 14.9502L14.9502 17.0713L13.7734 15.8945C13.0879 16.3343 12.3211 16.6566 11.5 16.8359V18.5H8.5V16.8359C7.6786 16.6565 6.91128 16.3345 6.22559 15.8945L5.0498 17.0713L2.92871 14.9502L4.10449 13.7734C3.66485 13.088 3.34239 12.321 3.16309 11.5H1.49902V8.5H3.16309C3.34239 7.67898 3.66485 6.91203 4.10449 6.22656L2.92871 5.05078L5.0498 2.92871L6.22559 4.10547C6.91134 3.66545 7.67852 3.34249 8.5 3.16309V1.5H11.5V3.16309ZM10 5C7.23858 5 5 7.23858 5 10C5 12.7614 7.23858 15 10 15C12.7614 15 15 12.7614 15 10C15 7.23858 12.7614 5 10 5Z" fill="#202122"/>
</svg>
