<svg width="20" height="20" viewBox="0 0 20 20" fill="none" xmlns="http://www.w3.org/2000/svg">
<path fill-rule="evenodd" clip-rule="evenodd" d="M19 7.29297V8.70703L13.0176 14.707L11.3096 14V11.1133C9.78029 11.4486 8.23304 12.505 6.78613 13.8848C5.05375 15.5367 3.65406 17.4641 2.7998 18.6006L1 18C1 16.4789 1.62834 13.3025 3.29883 10.4834C4.86005 7.84879 7.41497 5.40682 11.3096 5.04688V2L13.0176 1.29297L19 7.29297ZM13.3096 7H12.3096C8.78387 7.00016 6.48603 9.02819 5.01953 11.5029C4.51097 12.3612 4.11461 13.2567 3.8125 14.1094C4.30421 13.5498 4.83745 12.9799 5.40625 12.4375C7.2507 10.6787 9.65216 9.00018 12.3096 9H13.3096V11.5859L16.8955 8L13.3096 4.41406V7Z" fill="#202122"/>
</svg>
