<svg width="20" height="20" viewBox="0 0 20 20" fill="none" xmlns="http://www.w3.org/2000/svg">
<path d="M19 18.9998H1V16.9998H19V18.9998Z" fill="#202122"/>
<path fill-rule="evenodd" clip-rule="evenodd" d="M14.2666 0.517392C14.8189 0.581471 15.2755 0.812252 15.6309 1.11602C16.2789 1.67008 16.5852 2.45692 16.6992 3.01446L16.7646 3.29376C17.0733 4.76882 17.09 7.4053 15.1445 9.98419C14.2298 11.1966 13.2387 11.9861 12.2461 12.5057C12.4574 12.7535 12.7022 12.9597 12.9834 13.115C13.3397 13.3117 14.4747 13.6045 15.5547 12.7098C16.0147 12.3288 16.515 12.0649 17.0518 12.0096C17.6197 11.9512 18.1048 12.1396 18.4707 12.4354C19.1234 12.963 19.3925 13.8146 19.4844 14.3221L19.6621 15.3055L17.6943 15.6619L17.5156 14.6775C17.4903 14.5378 17.4433 14.3759 17.377 14.2342C17.319 14.1105 17.2629 14.0413 17.2295 14.0076C17.1756 14.0232 17.0436 14.074 16.8301 14.2508C14.9565 15.8026 12.8912 15.348 12.0166 14.865C11.2669 14.4509 10.7103 13.8704 10.2979 13.2244C9.70528 13.366 9.13116 13.4463 8.5918 13.4959L7.5957 13.5877L7.41211 11.5955L8.4082 11.5037C8.76418 11.471 9.12582 11.4245 9.49023 11.3543C9.13409 10.0442 9.11191 8.69452 9.19629 7.76251C9.2795 6.76045 9.52518 5.34606 10.0049 4.05157C10.4643 2.8119 11.2401 1.40326 12.5576 0.821103C13.1459 0.561187 13.7201 0.454072 14.2666 0.517392ZM14.0361 2.5047C13.9145 2.49064 13.7003 2.50263 13.3662 2.6502C12.8378 2.88368 12.3052 3.59927 11.8799 4.74688C11.4763 5.83603 11.2598 7.06878 11.1885 7.93536V7.94317C11.1224 8.67303 11.1429 9.71045 11.3877 10.6941C12.1293 10.2922 12.8594 9.69265 13.5479 8.78009C15.1645 6.63725 15.0153 4.49196 14.7627 3.51544L14.7539 3.47931L14.7471 3.44317C14.6946 3.15374 14.5387 2.81304 14.3311 2.63556C14.2443 2.56147 14.1519 2.51812 14.0361 2.5047Z" fill="#202122"/>
<path d="M6.41406 11.0008L4.91406 12.4998L6.41406 13.9998L5 15.4139L3.5 13.9139L2 15.4139L0.585938 13.9998L2.08594 12.4998L0.585938 10.9998L2 9.58575L3.5 11.0858L5 9.58575L6.41406 11.0008Z" fill="#202122"/>
</svg>
