<svg width="20" height="20" viewBox="0 0 20 20" fill="none" xmlns="http://www.w3.org/2000/svg">
<path d="M16.5 9.5293C16.4999 5.91956 13.5861 3 10 3C6.41387 3 3.50006 5.91956 3.5 9.5293C3.5 11.7489 4.60177 13.7088 6.28809 14.8896C6.73691 15.2039 6.93592 15.3483 7.14746 15.4639C7.33365 15.5655 7.54853 15.6539 8.00098 15.7891L8.71387 16.002V19H1V17H5.82715C5.61341 16.8613 5.3923 16.7046 5.14062 16.5283C2.94099 14.988 1.5 12.4269 1.5 9.5293C1.50006 4.82238 5.30193 1 10 1C14.6981 1 18.4999 4.82238 18.5 9.5293C18.5 12.4269 17.059 14.988 14.8594 16.5283C14.6077 16.7046 14.3866 16.8613 14.1729 17H19V19H11.2861V16.002L11.999 15.7891C12.4515 15.6539 12.6663 15.5655 12.8525 15.4639C13.0641 15.3483 13.2631 15.2039 13.7119 14.8896C15.3982 13.7088 16.5 11.7489 16.5 9.5293Z" fill="#202122"/>
</svg>
