<svg width="20" height="20" viewBox="0 0 20 20" fill="none" xmlns="http://www.w3.org/2000/svg">
<path d="M18 12H14.1855C14.6385 12.8013 14.8593 13.7356 14.7793 14.6973C14.5767 17.1288 12.5434 18.9996 10.1035 19H9.47656C7.58949 18.9998 5.84017 18.0097 4.86914 16.3916L4.64355 16.0146L6.3584 14.9854L6.58496 15.3623C7.19456 16.3779 8.29207 16.9998 9.47656 17H10.1035C11.5032 16.9996 12.6699 15.9262 12.7861 14.5312C12.872 13.4989 12.3568 12.5218 11.4834 12H2V10H18V12Z" fill="#202122"/>
<path d="M9.52539 1C11.4123 1.00045 13.162 1.99035 14.1328 3.6084L14.3584 3.98535L12.6436 5.01465L12.417 4.6377C11.8076 3.62215 10.7097 3.00045 9.52539 3H8.89844C7.49843 3 6.33212 4.07359 6.21582 5.46875C6.12992 6.5012 6.64416 7.47823 7.51758 8H4.81641C4.3633 7.1986 4.14259 6.26462 4.22266 5.30273C4.42534 2.87099 6.45825 1 8.89844 1H9.52539Z" fill="#202122"/>
</svg>
