<svg width="20" height="20" viewBox="0 0 20 20" fill="none" xmlns="http://www.w3.org/2000/svg">
<path d="M8.92285 11.9189C9.77874 10.2072 12.2212 10.2072 13.0771 11.9189L13.1445 12.0527C13.291 12.3457 13.7089 12.3456 13.8555 12.0527L14.1055 11.5527C14.3524 11.0588 14.9533 10.8587 15.4473 11.1055C15.9412 11.3525 16.1415 11.9533 15.8945 12.4473L15.6445 12.9473C14.7609 14.7142 12.239 14.7143 11.3555 12.9473L11.2881 12.8135C11.1692 12.5759 10.8308 12.5758 10.7119 12.8135L10.5986 13.0391C9.74606 14.7437 7.27918 14.6408 6.57129 12.8711C6.50405 12.704 6.27112 12.6943 6.19043 12.8555L5.89453 13.4473C5.6475 13.9411 5.04667 14.1415 4.55273 13.8945C4.05898 13.6475 3.85862 13.0466 4.10547 12.5527L4.40137 11.9609C5.25387 10.2562 7.72074 10.3592 8.42871 12.1289C8.49588 12.2961 8.72881 12.3056 8.80957 12.1445L8.92285 11.9189Z" fill="#202122"/>
<path d="M8.92285 6.91895C9.77874 5.20716 12.2212 5.20724 13.0771 6.91895L13.1445 7.05273C13.291 7.3457 13.7089 7.34561 13.8555 7.05273L14.1055 6.55273C14.3524 6.05884 14.9533 5.85867 15.4473 6.10547C15.9412 6.35246 16.1415 6.95329 15.8945 7.44727L15.6445 7.94727C14.7609 9.71424 12.239 9.71432 11.3555 7.94727L11.2881 7.81348C11.1692 7.57587 10.8308 7.57579 10.7119 7.81348L10.5986 8.03906C9.74606 9.74373 7.27918 9.64083 6.57129 7.87109C6.50405 7.704 6.27112 7.69432 6.19043 7.85547L5.89453 8.44727C5.6475 8.94115 5.04667 9.1415 4.55273 8.89453C4.05898 8.64749 3.85862 8.04661 4.10547 7.55273L4.40137 6.96094C5.25387 5.25617 7.72074 5.35922 8.42871 7.12891C8.49588 7.29605 8.72881 7.30558 8.80957 7.14453L8.92285 6.91895Z" fill="#202122"/>
<path fill-rule="evenodd" clip-rule="evenodd" d="M20 18H0V2H20V18ZM2 16H18V4H2V16Z" fill="#202122"/>
</svg>
