<svg width="20" height="20" viewBox="0 0 20 20" fill="none" xmlns="http://www.w3.org/2000/svg">
<path d="M19 10C19 14.9706 14.9706 19 10 19C5.02944 19 1 14.9706 1 10C1 5.02944 5.02944 1 10 1C14.9706 1 19 5.02944 19 10Z" fill="#099979"/>
<path d="M17 10C17 6.13401 13.866 3 10 3C6.13401 3 3 6.13401 3 10C3 13.866 6.13401 17 10 17L10 19C5.02944 19 1 14.9706 1 10C1 5.02944 5.02944 1 10 1C14.9706 1 19 5.02944 19 10C19 14.9706 14.9706 19 10 19L10 17C13.866 17 17 13.866 17 10Z" fill="#132821"/>
<path d="M14.4053 7.34375L9.17578 13.8818L5.59961 11.2002L6.7998 9.59961L8.82324 11.1182L12.8438 6.09473L14.4053 7.34375Z" fill="white"/>
</svg>
