<svg width="20" height="20" viewBox="0 0 20 20" fill="none" xmlns="http://www.w3.org/2000/svg">
<path d="M2 16.5H8V18.5H0V13H2V16.5Z" fill="#202122"/>
<path d="M20 18.5H12V16.5H18V13H20V18.5Z" fill="#202122"/>
<path d="M9.03223 9.29297V10.707L5.3252 14.4141L3.91113 13L5.91113 11H0V9H5.91113L3.91113 7L5.3252 5.58594L9.03223 9.29297Z" fill="#202122"/>
<path d="M16.0889 7L14.0889 9H20V11H14.0889L16.0889 13L14.6748 14.4141L10.9678 10.707V9.29297L14.6748 5.58594L16.0889 7Z" fill="#202122"/>
<path d="M8 3.5H2V7H0V1.5H8V3.5Z" fill="#202122"/>
<path d="M20 7H18V3.5H12V1.5H20V7Z" fill="#202122"/>
</svg>
