<svg width="20" height="20" viewBox="0 0 20 20" fill="none" xmlns="http://www.w3.org/2000/svg">
<path d="M9.5 10.5C10.0523 10.5 10.5 10.9477 10.5 11.5C10.5 12.0523 10.0523 12.5 9.5 12.5C8.94772 12.5 8.5 12.0523 8.5 11.5C8.5 10.9477 8.94772 10.5 9.5 10.5Z" fill="#202122"/>
<path d="M4.5 3.5C5.05228 3.5 5.5 3.94772 5.5 4.5C5.5 5.05228 5.05228 5.5 4.5 5.5C3.94772 5.5 3.5 5.05228 3.5 4.5C3.5 3.94772 3.94772 3.5 4.5 3.5Z" fill="#202122"/>
<path fill-rule="evenodd" clip-rule="evenodd" d="M15 7H20V20H5V13H0V0H15V7ZM7 18H18V9H7V18ZM2 11H5V7H13V2H2V11Z" fill="#202122"/>
</svg>
