<svg width="20" height="20" viewBox="0 0 20 20" fill="none" xmlns="http://www.w3.org/2000/svg">
<path fill-rule="evenodd" clip-rule="evenodd" d="M19.2539 17.8398L17.8398 19.2539L15.6162 17.0303C14.0766 18.2619 12.125 19 10 19C5.02944 19 1 14.9706 1 10C1 7.87498 1.73712 5.92249 2.96875 4.38281L0.871094 2.28516L2.28516 0.871094L19.2539 17.8398ZM4.39355 5.80762C3.51829 6.97622 3 8.42762 3 10C3 13.866 6.13401 17 10 17C11.5723 17 13.0228 16.4807 14.1914 15.6055L9.58594 11H5V9H7.58594L4.39355 5.80762Z" fill="#202122"/>
<path d="M10 1C14.9706 1 19 5.02944 19 10C19 11.3894 18.6843 12.705 18.1221 13.8799L16.5938 12.3516C16.8559 11.6165 17 10.8251 17 10C17 6.13401 13.866 3 10 3C9.17465 3 8.38271 3.14296 7.64746 3.40527L6.11914 1.87695C7.29416 1.31457 8.61039 1 10 1Z" fill="#202122"/>
<path d="M15 10.7578L13.2422 9H15V10.7578Z" fill="#202122"/>
</svg>
