<svg width="20" height="20" viewBox="0 0 20 20" fill="none" xmlns="http://www.w3.org/2000/svg">
<path d="M16.9575 7.54332C18.5505 9.1363 18.8491 11.6118 17.6805 13.5378L14.3549 19.0193H12.6451L9.31951 13.5378C8.15091 11.6118 8.44951 9.1363 10.0425 7.54332C11.9521 5.63392 15.0479 5.63392 16.9575 7.54332ZM11.4567 8.95753C10.5153 9.89897 10.3386 11.3624 11.0293 12.5007L13.5 16.5707L15.9707 12.5007C16.6614 11.3624 16.4847 9.89897 15.5433 8.95753C14.4148 7.82918 12.5852 7.82918 11.4567 8.95753Z" fill="#202122"/>
<path d="M14.5 11C14.5 11.5523 14.0523 12 13.5 12C12.9477 12 12.5 11.5523 12.5 11C12.5 10.4477 12.9477 10 13.5 10C14.0523 10 14.5 10.4477 14.5 11Z" fill="#202122"/>
<path d="M18 18C18 17.9078 18 17.4641 17.9171 17C17.8912 16.8554 17.8573 16.7088 17.8128 16.5702L16.9 17L16 18.5V19H18V18ZM4 18C4 17.5981 4.03945 17.2063 4.11426 16.8281L2.15234 16.4395C2.05236 16.9449 2 17.467 2 18V19H4V18ZM5.55469 11.3477C4.68271 11.9314 3.93143 12.6827 3.34766 13.5547L5.00977 14.667C5.4481 14.0123 6.01225 13.4481 6.66699 13.0098L5.55469 11.3477Z" fill="#202122"/>
<path d="M5 7C5 6.32392 5.13486 5.67684 5.37988 5.08594L7.22754 5.85156C7.08143 6.2039 7 6.59138 7 7C7 7.40862 7.08143 7.7961 7.22754 8.14844L5.37988 8.91406C5.13486 8.32316 5 7.67608 5 7ZM13 7C13 6.59138 12.9186 6.2039 12.7725 5.85156L14.6201 5.08594C14.8651 5.67684 15 6.32392 15 7H13ZM10 2C10.6761 2 11.3232 2.13486 11.9141 2.37988L11.1484 4.22754C10.7961 4.08143 10.4086 4 10 4C9.59138 4 9.2039 4.08143 8.85156 4.22754L8.08594 2.37988C8.67684 2.13486 9.32392 2 10 2Z" fill="#202122"/>
</svg>
