<svg width="20" height="20" viewBox="0 0 20 20" fill="none" xmlns="http://www.w3.org/2000/svg">
<path d="M17.0498 12.7334L18.8936 11.6279L19.9219 13.3438L17.9932 14.5L19.9219 15.6572L18.8926 17.3721L17.0498 16.2656V18.5H15.0498V16.2646L13.2061 17.3721L12.1787 15.6572L14.1055 14.5L12.1777 13.3438L13.2061 11.6279L15.0498 12.7334V10.5H17.0498V12.7334Z" fill="#202122"/>
<path d="M10 18H3C3 14.6863 5.68629 12 9 12H10V18Z" fill="#202122"/>
<path d="M10 3C11.933 3 13.5 4.567 13.5 6.5C13.5 8.433 11.933 10 10 10C8.067 10 6.5 8.433 6.5 6.5C6.5 4.567 8.067 3 10 3Z" fill="#202122"/>
</svg>
