<svg width="20" height="20" viewBox="0 0 20 20" fill="none" xmlns="http://www.w3.org/2000/svg">
<path fill-rule="evenodd" clip-rule="evenodd" d="M12.5 1C14.433 1 16 2.567 16 4.5C16 5.51942 15.5637 6.4365 14.8682 7.07617C17.2157 7.48724 19 9.53475 19 12V13H17V12C17 10.3431 15.6569 9 14 9H11.9639C11.9872 9.16333 12 9.33021 12 9.5C12 10.4797 11.5969 11.3647 10.9482 12H11C13.7614 12 16 14.2386 16 17V19H1V17C1 14.2386 3.23858 12 6 12H6.05176C5.40311 11.3647 5 10.4797 5 9.5C5 7.567 6.567 6 8.5 6C8.80958 6 9.10963 6.04076 9.39551 6.11621C9.14325 5.63266 9 5.08315 9 4.5C9 2.567 10.567 1 12.5 1ZM12.5 3C11.6716 3 11 3.67157 11 4.5C11 5.32843 11.6716 6 12.5 6C13.3284 6 14 5.32843 14 4.5C14 3.67157 13.3284 3 12.5 3Z" fill="#202122"/>
</svg>
