<svg width="20" height="20" viewBox="0 0 20 20" fill="none" xmlns="http://www.w3.org/2000/svg">
<path d="M6.5 13.5C7.88071 13.5 9 14.6193 9 16C9 17.3807 7.88071 18.5 6.5 18.5C5.11929 18.5 4 17.3807 4 16C4 14.6193 5.11929 13.5 6.5 13.5Z" fill="#202122"/>
<path d="M13.5 13.5C14.8807 13.5 16 14.6193 16 16C16 17.3807 14.8807 18.5 13.5 18.5C12.1193 18.5 11 17.3807 11 16C11 14.6193 12.1193 13.5 13.5 13.5Z" fill="#202122"/>
<path fill-rule="evenodd" clip-rule="evenodd" d="M15 7.08594L18.207 10.293L17.5 12H2.5L1.79297 10.293L5 7.08594V2H15V7.08594ZM7 7.91406L4.91406 10H15.0859L13 7.91406V4H7V7.91406Z" fill="#202122"/>
</svg>
