<svg width="20" height="20" viewBox="0 0 20 20" fill="none" xmlns="http://www.w3.org/2000/svg">
<path d="M12 10.5C12 11.6046 11.1046 12.5 10 12.5C8.89543 12.5 8 11.6046 8 10.5V10H12V10.5Z" fill="#202122"/>
<path d="M6.25 6C6.94036 6 7.5 6.55964 7.5 7.25C7.5 7.94036 6.94036 8.5 6.25 8.5C5.55964 8.5 5 7.94036 5 7.25C5 6.55964 5.55964 6 6.25 6Z" fill="#202122"/>
<path d="M13.75 6C14.4404 6 15 6.55964 15 7.25C15 7.94036 14.4404 8.5 13.75 8.5C13.0596 8.5 12.5 7.94036 12.5 7.25C12.5 6.55964 13.0596 6 13.75 6Z" fill="#202122"/>
<path fill-rule="evenodd" clip-rule="evenodd" d="M19 16H12.3154L7.57324 19.3193L6 18.5V16H1V2H19V16ZM3 14H8V16.5791L11.6846 14H17V4H3V14Z" fill="#202122"/>
</svg>
