<svg width="20" height="20" viewBox="0 0 20 20" fill="none" xmlns="http://www.w3.org/2000/svg">
<path fill-rule="evenodd" clip-rule="evenodd" d="M10 1.5C12.7614 1.5 15 3.73858 15 6.5C15 8.26751 14.0816 9.81883 12.6973 10.708C15.743 11.4667 18 14.2194 18 17.5V18.5H16V17.5C16 14.7386 13.7614 12.5 11 12.5H9C6.23858 12.5 4 14.7386 4 17.5V18.5H2V17.5C2 14.2197 4.25645 11.467 7.30176 10.708C5.91781 9.81876 5 8.26722 5 6.5C5 3.73858 7.23858 1.5 10 1.5ZM10 3.5C8.34315 3.5 7 4.84315 7 6.5C7 8.15685 8.34315 9.5 10 9.5C11.6569 9.5 13 8.15685 13 6.5C13 4.84315 11.6569 3.5 10 3.5Z" fill="#202122"/>
</svg>
