<svg width="20" height="20" viewBox="0 0 20 20" fill="none" xmlns="http://www.w3.org/2000/svg">
<path d="M4.11426 16.8281C4.03945 17.2063 4 17.5981 4 18V19H2V18C2 17.467 2.05236 16.9449 2.15234 16.4395L4.11426 16.8281Z" fill="#202122"/>
<path d="M17.8477 16.4395C17.9476 16.9449 18 17.467 18 18V19H16V18C16 17.5981 15.9606 17.2063 15.8857 16.8281L17.8477 16.4395Z" fill="#202122"/>
<path d="M6.66699 13.0098C6.01225 13.4481 5.4481 14.0123 5.00977 14.667L3.34766 13.5547C3.93143 12.6827 4.68271 11.9314 5.55469 11.3477L6.66699 13.0098Z" fill="#202122"/>
<path d="M14.4453 11.3477C15.3173 11.9314 16.0686 12.6827 16.6523 13.5547L14.9902 14.667C14.5519 14.0123 13.9877 13.4481 13.333 13.0098L14.4453 11.3477Z" fill="#202122"/>
<path d="M11.9141 11.6201C11.3232 11.8651 10.6761 12 10 12C9.32392 12 8.67684 11.8651 8.08594 11.6201L8.85156 9.77246C9.2039 9.91857 9.59138 10 10 10C10.4086 10 10.7961 9.91857 11.1484 9.77246L11.9141 11.6201Z" fill="#202122"/>
<path d="M7.22754 5.85156C7.08143 6.2039 7 6.59138 7 7C7 7.40862 7.08143 7.7961 7.22754 8.14844L5.37988 8.91406C5.13486 8.32316 5 7.67608 5 7C5 6.32392 5.13486 5.67684 5.37988 5.08594L7.22754 5.85156Z" fill="#202122"/>
<path d="M14.6201 5.08594C14.8651 5.67684 15 6.32392 15 7C15 7.67608 14.8651 8.32316 14.6201 8.91406L12.7725 8.14844C12.9186 7.7961 13 7.40862 13 7C13 6.59138 12.9186 6.2039 12.7725 5.85156L14.6201 5.08594Z" fill="#202122"/>
<path d="M10 2C10.6761 2 11.3232 2.13486 11.9141 2.37988L11.1484 4.22754C10.7961 4.08143 10.4086 4 10 4C9.59138 4 9.2039 4.08143 8.85156 4.22754L8.08594 2.37988C8.67684 2.13486 9.32392 2 10 2Z" fill="#202122"/>
</svg>
