<svg width="20" height="20" viewBox="0 0 20 20" fill="none" xmlns="http://www.w3.org/2000/svg">
<path fill-rule="evenodd" clip-rule="evenodd" d="M19.2539 17.8398L17.8398 19.2539L16.3965 17.8105C16.3526 17.8704 16.3109 17.932 16.2656 17.9912L15.1865 19.4014L13.5986 18.1865L14.6768 16.7764C14.7765 16.6459 14.8726 16.5135 14.9658 16.3799L13.2002 14.6143C13.1467 14.6829 13.0934 14.7521 13.0371 14.8193L12.7666 15.1416L12.125 15.9082L10.5918 14.625L11.5029 13.5361C11.5982 13.4223 11.6869 13.3047 11.7715 13.1855L9 10.4141V16L7.29297 16.707L3.58594 13H0V7H3.58594L4.58594 6L0.871094 2.28516L2.28516 0.871094L19.2539 17.8398ZM4.41406 9H2V11H4.41406L7 13.5859V8.41406L6 7.41406L4.41406 9Z" fill="#202122"/>
<path d="M15.7559 1.34473C18.8569 4.92286 19.729 9.77682 18.3223 14.0801L16.6992 12.457C17.466 9.07169 16.6366 5.41583 14.2441 2.65527L13.5898 1.89941L15.1006 0.589844L15.7559 1.34473Z" fill="#202122"/>
<path d="M12.7256 4.81152C14.2291 6.39725 14.9148 8.48342 14.7695 10.5273L12.5156 8.27344C12.2683 7.51565 11.8551 6.80097 11.2744 6.18848L10.5859 5.46191L12.0381 4.08594L12.7256 4.81152Z" fill="#202122"/>
</svg>
