<svg width="20" height="20" viewBox="0 0 20 20" fill="none" xmlns="http://www.w3.org/2000/svg">
<path d="M15.7559 1.34473C19.8516 6.07053 20.0644 13.0236 16.2656 17.9912L15.1865 19.4014L13.5986 18.1865L14.6768 16.7764C17.8993 12.5622 17.7185 6.66431 14.2441 2.65527L13.5898 1.89941L15.1006 0.589844L15.7559 1.34473Z" fill="#202122"/>
<path fill-rule="evenodd" clip-rule="evenodd" d="M9 4V16L7.29297 16.707L3.58594 13H0V7H3.58594L7.29297 3.29297L9 4ZM4.41406 9H2V11H4.41406L7 13.5859V6.41406L4.41406 9Z" fill="#202122"/>
<path d="M12.7256 4.81152C15.3548 7.58453 15.4889 11.8884 13.0371 14.8193L12.7666 15.1416L12.125 15.9082L10.5918 14.625L11.5029 13.5361C13.3032 11.3841 13.2047 8.22462 11.2744 6.18848L10.5859 5.46191L12.0381 4.08594L12.7256 4.81152Z" fill="#202122"/>
</svg>
